<svg width="861" height="474" viewBox="0 0 861 474" fill="none" xmlns="http://www.w3.org/2000/svg">
<g clip-path="url(#clip0_1271_59)">
<path d="M651.623 104.468C651.691 102.337 651.338 100.213 650.585 98.2185C649.831 96.2239 648.692 94.3977 647.231 92.8441C645.771 91.2906 644.018 90.0404 642.074 89.165C640.13 88.2896 638.032 87.8063 635.901 87.7427L591.133 86.4058L553.177 54.7127C553.021 53.0329 552.396 51.4307 551.375 50.0882C550.353 48.7458 548.975 47.7171 547.398 47.1192C545.82 46.5214 544.106 46.3784 542.452 46.7065C540.797 47.0346 539.267 47.8207 538.037 48.9753C536.807 50.1298 535.926 51.6065 535.494 53.2372C535.062 54.8679 535.096 56.5872 535.593 58.1994C536.09 59.8115 537.029 61.2518 538.305 62.3563C539.58 63.4609 541.139 64.1852 542.806 64.447L582.592 109.774L632.192 119.841C634.504 120.31 636.891 120.269 639.185 119.721C641.48 119.172 643.627 118.13 645.477 116.666C647.328 115.203 648.836 113.353 649.898 111.246C650.959 109.139 651.548 106.826 651.623 104.468Z" fill="#9E616A"/>
<path d="M590.814 115.683L596.676 85.3386L596.867 85.1902C598.112 84.2207 599.62 83.6487 601.195 83.5487C602.769 83.4488 604.337 83.8256 605.694 84.6299L606.035 84.8295L645.561 85.8942L650.189 88.617L652.859 87.9652C660.932 85.9949 669.088 84.6591 674.064 88.192C676.876 90.1873 678.469 93.5094 678.938 98.343C679.274 101.814 678.826 105.316 677.626 108.59C676.427 111.864 674.506 114.826 672.007 117.258C669.508 119.689 666.494 121.528 663.188 122.637C659.882 123.747 656.369 124.099 652.909 123.667L650.921 123.397L644.411 120.768L634.341 121.963L628.317 119.488L590.814 115.683Z" fill="#3F3D56"/>
<path d="M437.75 451.155C437.883 457.456 437.014 463.739 435.174 469.767C435.11 469.986 435.033 470.205 434.955 470.424H397.037C397.579 467.754 398.44 465.16 399.6 462.696C402.756 455.998 407.908 450.267 412.995 444.574C420.002 436.73 426.841 428.951 427.923 418.75C430.7 422.984 432.917 427.56 434.517 432.364C432.558 433.09 430.76 434.192 429.224 435.609C428.799 436.009 428.348 436.588 428.567 437.142C428.773 437.606 429.34 437.76 429.842 437.863C431.053 438.095 432.264 438.327 433.474 438.546C434.427 438.739 435.393 438.92 436.359 439.1C437.208 443.065 437.674 447.102 437.75 451.155Z" fill="#E6E6E6"/>
<path d="M469.602 446.982C463.523 450.679 459.659 456.398 456.503 462.799C453.757 463.425 451.222 464.757 449.149 466.663C448.711 467.062 448.26 467.642 448.492 468.195C448.685 468.659 449.265 468.814 449.767 468.917C450.965 469.149 452.188 469.38 453.386 469.599C453.27 469.87 453.154 470.153 453.039 470.424H412.854C414.678 467.963 416.698 465.655 418.894 463.52C419.371 463.043 419.86 462.593 420.362 462.129C425.485 457.5 431.367 453.787 437.75 451.155C447.806 446.952 458.803 445.511 469.602 446.982Z" fill="#E6E6E6"/>
<path d="M419.55 470.424H383.769C383.574 467.558 383.591 464.683 383.821 461.82C384.596 452.959 387.283 444.371 391.696 436.649C396.11 428.927 402.146 422.253 409.387 417.088C407.533 423.696 408.486 430.264 410.418 436.859C410.147 436.949 409.877 437.026 409.632 437.129C407.673 437.855 405.874 438.958 404.339 440.375C403.914 440.774 403.463 441.354 403.682 441.908C403.875 442.371 404.454 442.526 404.957 442.629C406.167 442.861 407.378 443.093 408.576 443.312C409.542 443.505 410.508 443.685 411.474 443.878C411.925 443.956 412.376 444.046 412.826 444.136C412.891 444.29 412.929 444.432 412.994 444.574C415.261 450.821 417.734 457.119 418.893 463.52C419.18 465.127 419.377 466.748 419.485 468.376C419.524 469.058 419.55 469.741 419.55 470.424Z" fill="#E6E6E6"/>
<path d="M264.232 414.753C264.616 432.958 262.103 451.109 256.789 468.526C256.603 469.158 256.38 469.791 256.157 470.424H146.602C148.168 462.712 150.654 455.215 154.007 448.096C163.124 428.745 178.009 412.185 192.709 395.737C212.952 373.074 232.713 350.598 235.838 321.125C243.863 333.358 250.267 346.58 254.891 360.459C249.23 362.557 244.034 365.742 239.597 369.837C238.369 370.99 237.066 372.665 237.699 374.265C238.294 375.605 239.932 376.052 241.383 376.349C244.881 377.019 248.379 377.689 251.877 378.322C254.631 378.88 257.422 379.401 260.213 379.922C262.666 391.376 264.012 403.041 264.232 414.753Z" fill="#E6E6E6"/>
<path d="M356.259 402.696C338.695 413.376 327.531 429.899 318.414 448.393C310.48 450.202 303.155 454.05 297.165 459.557C295.9 460.711 294.597 462.386 295.267 463.986C295.825 465.325 297.5 465.772 298.951 466.07C302.412 466.74 305.947 467.409 309.408 468.042C309.073 468.824 308.738 469.642 308.403 470.424H192.299C197.569 463.315 203.406 456.645 209.752 450.478C211.129 449.1 212.543 447.798 213.994 446.458C228.794 433.083 245.789 422.357 264.232 414.753C293.285 402.607 325.057 398.444 356.259 402.696Z" fill="#E6E6E6"/>
<path d="M211.65 470.424H108.272C107.707 462.145 107.757 453.836 108.421 445.565C112.552 394.472 140.35 345.797 182.289 316.325C176.93 335.415 179.684 354.394 185.266 373.447C184.484 373.707 183.703 373.93 182.996 374.228C177.334 376.325 172.138 379.511 167.701 383.606C166.473 384.759 165.171 386.434 165.803 388.034C166.361 389.374 168.036 389.82 169.487 390.118C172.985 390.788 176.483 391.458 179.944 392.09C182.735 392.648 185.526 393.169 188.317 393.728C189.619 393.951 190.922 394.211 192.224 394.472C192.41 394.918 192.522 395.328 192.708 395.737C199.258 413.785 206.403 431.983 209.752 450.478C210.581 455.119 211.152 459.802 211.464 464.507C211.575 466.479 211.65 468.451 211.65 470.424Z" fill="#E6E6E6"/>
<path d="M660.929 414.753C661.313 432.958 658.801 451.109 653.487 468.526C653.3 469.158 653.077 469.791 652.854 470.424H543.299C544.865 462.712 547.351 455.215 550.704 448.096C559.821 428.745 574.707 412.185 589.406 395.737C609.65 373.074 629.41 350.598 632.536 321.125C640.56 333.358 646.964 346.58 651.589 360.459C645.927 362.557 640.731 365.742 636.294 369.837C635.066 370.99 633.764 372.665 634.396 374.265C634.992 375.605 636.629 376.052 638.08 376.349C641.578 377.019 645.076 377.689 648.574 378.322C651.328 378.88 654.119 379.401 656.91 379.922C659.363 391.376 660.709 403.041 660.929 414.753Z" fill="#E6E6E6"/>
<path d="M752.958 402.696C735.394 413.376 724.23 429.899 715.113 448.393C707.179 450.202 699.855 454.05 693.864 459.557C692.599 460.711 691.297 462.386 691.966 463.986C692.525 465.325 694.199 465.772 695.65 466.07C699.111 466.74 702.646 467.409 706.107 468.042C705.772 468.824 705.437 469.642 705.103 470.424H588.998C594.269 463.315 600.105 456.645 606.451 450.478C607.828 449.1 609.242 447.798 610.693 446.458C625.494 433.083 642.488 422.357 660.931 414.753C689.985 402.607 721.756 398.444 752.958 402.696Z" fill="#E6E6E6"/>
<path d="M608.349 470.424H504.971C504.407 462.145 504.456 453.836 505.12 445.565C509.251 394.472 537.049 345.797 578.988 316.325C573.629 335.415 576.383 354.394 581.965 373.447C581.184 373.707 580.402 373.93 579.695 374.228C574.033 376.325 568.837 379.511 564.4 383.606C563.172 384.759 561.87 386.434 562.502 388.034C563.061 389.374 564.735 389.82 566.187 390.118C569.685 390.788 573.183 391.458 576.643 392.09C579.434 392.648 582.225 393.169 585.016 393.728C586.319 393.951 587.621 394.211 588.924 394.472C589.11 394.918 589.221 395.328 589.407 395.737C595.957 413.785 603.102 431.983 606.451 450.478C607.28 455.119 607.852 459.802 608.163 464.507C608.274 466.479 608.349 468.451 608.349 470.424Z" fill="#E6E6E6"/>
<path d="M432.455 113.652C432.446 133.454 425.306 152.591 412.341 167.558C399.376 182.526 381.455 192.324 361.857 195.158C342.259 197.993 322.296 193.675 305.621 182.994C288.947 172.313 276.677 155.984 271.057 136.996C265.438 118.009 266.845 97.6322 275.02 79.5968C283.196 61.5615 297.593 47.0738 315.577 38.7857C333.561 30.4977 353.928 28.9637 372.951 34.4646C391.973 39.9655 408.378 52.1332 419.163 68.7406C417.924 69.8401 416.762 71.0235 415.686 72.2825C415.402 72.6045 415.119 72.9522 414.849 73.2871C414.449 73.7765 414.076 74.266 413.715 74.7683C413.29 75.3479 412.891 75.9403 412.504 76.5457C410.595 79.5123 409.136 82.746 408.177 86.1412C410.679 83.1387 413.619 80.5293 416.896 78.4004C416.965 78.3541 417.039 78.3153 417.115 78.2844C417.437 78.0784 417.759 77.8723 418.094 77.6662C419.526 76.7938 421.01 76.0109 422.538 75.3221C422.667 75.2706 422.795 75.2061 422.924 75.1546C429.207 87.0128 432.48 100.233 432.455 113.652Z" fill="#92E3A9"/>
<path d="M388.471 470.475C386.758 469.058 385.083 467.603 383.448 466.083C370.386 453.804 360.124 438.855 353.36 422.253C347.825 408.86 344.585 394.631 343.778 380.162C343.585 376.736 343.546 373.323 343.636 369.909C343.87 361.007 345.101 352.159 347.307 343.532C349.896 333.511 353.785 323.89 357.855 314.385C359.865 309.683 361.951 304.969 363.96 300.217C370.091 285.766 375.604 270.967 376.454 255.189C377.504 234.86 371.564 214.783 359.62 198.299C358.165 196.289 361.513 194.357 362.956 196.354C364.437 198.376 365.828 200.462 367.129 202.613C377.574 219.922 382.058 240.177 379.893 260.276C378.334 273.968 373.698 286.835 368.417 299.457C365.699 306 362.801 312.465 360.071 318.97C359.246 320.927 358.435 322.885 357.649 324.869C354.586 332.31 352.109 339.98 350.243 347.808C348.304 356.464 347.366 365.315 347.449 374.186C347.474 376.53 347.552 378.861 347.706 381.192C348.724 396.63 352.584 411.747 359.092 425.782C366.544 441.985 377.519 456.321 391.214 467.745C393.133 469.329 390.377 472.047 388.471 470.475Z" fill="#3F3D56"/>
<path d="M360.057 434.734C357.958 434.154 355.88 433.514 353.824 432.815C337.053 427 321.719 417.668 308.847 405.445C295.981 393.33 285.74 378.701 278.76 362.465C275.272 354.331 272.701 345.834 271.097 337.13C270.226 332.185 269.611 327.198 269.255 322.19C268.804 316.098 268.649 309.967 268.572 303.862C268.405 290.029 268.624 275.887 266.524 262.183C265.407 254.239 263.255 246.475 260.123 239.089C252.563 221.723 239.67 207.215 223.312 197.667C221.161 196.418 223.106 193.082 225.257 194.332C227.254 195.491 229.211 196.714 231.118 198.028C246.633 208.728 258.535 223.887 265.249 241.498C267.632 247.908 269.333 254.552 270.324 261.32C272.655 276.402 272.217 291.961 272.488 307.172C272.578 312.349 272.758 317.54 273.17 322.718C273.563 328.292 274.325 333.834 275.45 339.307C277.262 347.864 280.031 356.189 283.706 364.126C291.169 380.127 301.896 394.389 315.197 405.999C328.445 417.636 344.116 426.18 361.075 431.011C363.471 431.681 362.453 435.416 360.057 434.734Z" fill="#3F3D56"/>
<path d="M213.484 199.432C201.495 204.748 188.411 207.127 175.318 206.37C162.226 205.614 149.502 201.745 138.205 195.084C126.908 188.424 117.363 179.163 110.364 168.073C103.364 156.983 99.1114 144.382 97.9593 131.318C96.8072 118.254 98.7888 105.104 103.739 92.9601C108.69 80.8158 116.467 70.0281 126.424 61.4929C136.381 52.9577 148.231 46.9214 160.989 43.8855C173.747 40.8495 187.046 40.9015 199.78 44.0371C199.407 44.5522 199.046 45.0932 198.698 45.6342C196.788 48.6007 195.33 51.8345 194.371 55.2297C196.873 52.2272 199.812 49.6178 203.09 47.4889C203.159 47.4426 203.232 47.4037 203.309 47.3729C203.631 47.1669 203.953 46.9607 204.288 46.7547C204.829 46.4198 205.37 46.1107 205.924 45.8144C217.64 49.6781 228.34 56.1218 237.235 64.6705C235.995 65.5209 234.812 66.4502 233.693 67.4526C232.454 68.5521 231.292 69.7356 230.215 70.9946C229.932 71.3166 229.648 71.6643 229.378 71.9992C228.979 72.4886 228.605 72.978 228.244 73.4804C228.206 73.5448 228.154 73.5963 228.116 73.6607C227.742 74.1759 227.382 74.7168 227.034 75.2578C225.124 78.2243 223.666 81.4581 222.706 84.8533C225.209 81.8508 228.148 79.2414 231.426 77.1125C231.494 77.0662 231.568 77.0274 231.645 76.9965C231.967 76.7905 232.289 76.5844 232.624 76.3783C233.165 76.0435 233.706 75.7343 234.259 75.438C235.174 74.9358 236.114 74.472 237.067 74.0342C237.196 73.9827 237.325 73.9182 237.454 73.8667C239.489 72.9756 241.596 72.2561 243.752 71.7158C251.812 81.5355 257.496 93.0843 260.359 105.462C263.222 117.839 263.187 130.71 260.257 143.072C257.328 155.434 251.582 166.952 243.469 176.728C235.356 186.504 225.094 194.274 213.484 199.432Z" fill="#92E3A9"/>
<path d="M450.685 115.322C445.213 134.353 446.778 154.718 455.093 172.689C463.408 190.661 477.917 205.037 495.964 213.185C514.012 221.334 534.391 222.71 553.37 217.062C572.349 211.414 588.659 199.12 599.315 182.429C609.971 165.739 614.26 145.769 611.396 126.176C608.532 106.582 598.707 88.675 583.72 75.7328C568.733 62.7906 549.586 55.6789 529.784 55.6994C509.982 55.7199 490.85 62.8712 475.89 75.8444C476.776 77.2439 477.565 78.7028 478.251 80.2106C478.434 80.5984 478.61 81.011 478.777 81.4077C479.026 81.9885 479.249 82.5622 479.456 83.1447C479.704 83.8193 479.924 84.4991 480.128 85.1878C481.142 88.5671 481.648 92.0782 481.63 95.6063C480.057 92.0285 477.955 88.7074 475.394 85.7543C475.341 85.6909 475.281 85.6332 475.216 85.5823C474.963 85.2952 474.711 85.008 474.446 84.7173C473.312 83.4828 472.103 82.3197 470.825 81.2347C470.716 81.1496 470.61 81.052 470.5 80.9669C461.181 90.6227 454.376 102.42 450.685 115.322Z" fill="#92E3A9"/>
<path d="M497.278 216.794C495.411 218.237 493.603 219.757 491.856 221.354C477.843 234.223 468.315 251.238 464.666 269.911C464.409 271.25 464.19 272.602 463.997 273.955C461.009 294.794 465.516 315.943 467.719 336.654C467.796 337.362 467.874 338.058 467.938 338.766C469.043 348.479 469.177 358.277 468.337 368.016C467.45 376.816 465.605 385.492 462.838 393.892C457.257 410.647 448.336 426.097 436.614 439.306C424.904 452.613 410.435 463.21 394.214 470.359C391.96 471.338 389.989 468.002 392.269 467.023C394.291 466.135 396.3 465.207 398.271 464.216C413.966 456.191 427.723 444.842 438.585 430.96C449.465 417.185 457.309 401.265 461.601 384.245C463.773 375.63 464.927 366.789 465.04 357.905C465.079 351.888 464.795 345.873 464.19 339.887C463.7 334.657 463.031 329.428 462.361 324.212C460.236 307.854 458.098 291.239 460.055 274.921C460.656 269.806 461.708 264.755 463.198 259.826C468.722 241.728 479.658 225.757 494.535 214.064C496.48 212.544 499.236 215.261 497.278 216.794Z" fill="#3F3D56"/>
<path d="M361.906 264.093C357.188 252.712 348.346 243.127 340.559 233.288C331.091 221.3 311.605 226.831 310.331 242.044C319.069 244.916 320.203 257.537 310.209 259.265C312.761 286.802 330.333 312.195 354.76 324.958L366.84 302.385C368.473 289.533 366.044 274.067 361.906 264.093Z" fill="#3F3D56"/>
<path d="M366.834 302.439C366.968 302.172 367.103 301.906 367.238 301.64L366.84 302.384L366.834 302.439Z" fill="#2F2E41"/>
<path d="M453.353 360.691C448.635 349.311 439.793 339.726 432.006 329.887C422.538 317.899 403.052 323.43 401.778 338.643C410.516 341.515 411.651 354.136 401.656 355.863C404.208 383.401 421.78 408.794 446.207 421.556L458.288 398.983C459.921 386.132 457.492 370.666 453.353 360.691Z" fill="#3F3D56"/>
<path d="M483.924 330.831C493.55 338.521 505.92 342.647 517.489 347.505C531.568 353.433 545.963 339.184 539.736 325.245C530.697 326.948 523.611 316.442 531.53 310.105C516.003 287.22 488.356 273.463 460.803 274.077L461.119 299.678C465.892 311.722 475.485 324.093 483.924 330.831Z" fill="#3F3D56"/>
<path d="M249.622 332.119C239.997 339.809 227.626 343.935 216.057 348.793C201.979 354.721 187.583 340.472 193.811 326.533C202.85 328.236 209.935 317.73 202.017 311.393C217.544 288.508 245.19 274.751 272.744 275.365L272.428 300.966C267.654 313.009 258.062 325.381 249.622 332.119Z" fill="#3F3D56"/>
<path d="M458.281 399.037C458.415 398.771 458.55 398.505 458.685 398.239L458.287 398.983L458.281 399.037Z" fill="#2F2E41"/>
<path d="M615.348 165.172L612.771 174.188L614.06 211.539L668.155 194.795L673.586 159L615.348 165.172Z" fill="#9E616A"/>
<path d="M576.178 446.173L562.787 443.569L566.462 390.678L586.225 394.522L576.178 446.173Z" fill="#9E616A"/>
<path d="M581.999 440.445L577.512 439.297L563.33 435.647L561.081 435.065L559.316 444.143L536.486 454.123C535.357 454.615 534.415 455.454 533.798 456.519C533.18 457.584 532.92 458.819 533.054 460.043C533.188 461.267 533.711 462.415 534.544 463.321C535.378 464.227 536.48 464.842 537.688 465.077L562.899 469.98L568.981 461.846L568.942 471.155L578.437 473.001L581.999 440.445Z" fill="#2F2E41"/>
<path d="M748.454 437.117L735.319 440.802L714.854 391.893L734.238 386.454L748.454 437.117Z" fill="#9E616A"/>
<path d="M751.082 429.385L746.557 430.374L732.246 433.481L729.976 433.971L732.474 442.874L716.557 462.043C715.769 462.989 715.304 464.162 715.231 465.391C715.158 466.62 715.479 467.84 716.149 468.874C716.818 469.907 717.801 470.698 718.952 471.133C720.104 471.568 721.365 471.623 722.55 471.291L747.277 464.351L749.06 454.353L753.205 462.688L762.518 460.074L751.082 429.385Z" fill="#2F2E41"/>
<path d="M611.483 203.811L672.586 185C672.586 185 670.731 190.931 678.412 203.693C686.437 217.024 690.986 232.582 691.161 244.834C691.538 271.337 695.087 297.7 703.026 322.989L703.716 325.185C703.716 325.185 722.221 340.282 729.978 372.537L745.93 411.704L726.114 417.616L674.214 339.415L669.282 335.423C665.694 332.518 662.771 328.876 660.711 324.744C658.651 320.612 657.503 316.085 657.344 311.471L641.755 285.648L630.167 308.381L611.43 335.033L599.995 374.287C596.547 392.573 593.689 409.692 581.86 424.056L560.461 421.196L575.42 331.322L588.827 292.265L598.881 262.977L605.043 245.027L611.483 203.811Z" fill="#2F2E41"/>
<path d="M607.744 185.008C606.927 190.157 608.249 194.919 607.587 201C607.478 202.007 604.907 204.365 604.828 205.366C604.639 207.752 606.529 208.738 606.587 211C606.633 212.766 604.789 215.845 605.04 217.469C607.685 234.585 623.087 242.186 679.587 206C679.587 206 684.587 203 681.137 196.852C680.217 195.213 684.237 193.304 684.587 191C684.853 189.249 682.659 186.972 682.943 185C683.278 182.672 683.622 180.202 683.968 177.616C688.473 143.872 693.159 90.4281 680.066 77.0413L672.673 63.4212L644.972 68.1354L644.875 79.8201L625.179 100.362C625.179 100.362 606.095 120.021 612.587 139C617.297 157.243 615.547 165.424 607.744 185.008Z" fill="#3F3D56"/>
<path d="M664.29 106.38C662.245 105.779 660.1 105.588 657.981 105.817C655.861 106.046 653.807 106.691 651.937 107.715C650.066 108.739 648.417 110.122 647.081 111.784C645.746 113.447 644.752 115.356 644.156 117.403L631.629 160.404L591.427 189.194C589.762 188.924 588.054 189.126 586.498 189.778C584.942 190.43 583.601 191.506 582.626 192.883C581.652 194.26 581.083 195.883 580.986 197.567C580.888 199.252 581.265 200.929 582.074 202.41C582.883 203.89 584.092 205.114 585.562 205.941C587.032 206.768 588.705 207.167 590.39 207.09C592.075 207.014 593.705 206.465 595.095 205.508C596.484 204.551 597.576 203.223 598.248 201.675L652.108 174.535L674.296 129.047C675.331 126.926 675.89 124.606 675.935 122.247C675.98 119.888 675.51 117.548 674.557 115.39C673.604 113.232 672.192 111.307 670.419 109.751C668.645 108.195 666.554 107.044 664.29 106.38Z" fill="#9E616A"/>
<path d="M659.89 168.056L631.987 154.769L631.891 154.546C631.265 153.098 631.089 151.495 631.388 149.946C631.686 148.396 632.444 146.973 633.563 145.861L633.842 145.582L644.79 107.586L648.586 103.79L648.625 101.042C648.744 92.733 649.497 84.502 654.165 80.572C656.802 78.3507 660.418 77.6419 665.214 78.4009C668.659 78.946 671.936 80.2584 674.804 82.2412C677.673 84.224 680.059 86.8264 681.785 89.8558C683.512 92.8852 684.536 96.2641 684.78 99.7425C685.025 103.221 684.484 106.71 683.198 109.951L682.438 111.807L678.259 117.45L676.89 127.497L672.982 132.708L659.89 168.056Z" fill="#3F3D56"/>
<path d="M622.427 67.5998L628.347 67.0815C627.669 64.747 627.247 62.3456 627.089 59.9197C628.446 62.5326 630.321 64.8416 632.6 66.7057L666.548 63.7096L687.203 22.0266C682.285 5.8746 669.551 -3.63246 653.484 1.31008C652.515 1.608 651.526 1.96332 650.54 2.36896C641.412 3.58643 633.112 8.29812 627.388 15.5121C621.665 22.7261 618.963 31.8795 619.853 41.0453C611.913 55.7619 618.072 61.084 622.427 67.5998Z" fill="#2F2E41"/>
<path d="M645.801 60.5087C658.686 60.5087 669.131 50.0635 669.131 37.1786C669.131 24.2937 658.686 13.8485 645.801 13.8485C632.916 13.8485 622.471 24.2937 622.471 37.1786C622.471 50.0635 632.916 60.5087 645.801 60.5087Z" fill="#9E616A"/>
<path d="M614.55 30.7345C617.049 32.5073 623.83 32.6694 631.644 32.0794C631.586 31.9314 631.539 31.7797 631.493 31.628C630.815 29.2935 630.393 26.8921 630.235 24.4662C631.592 27.0791 633.467 29.3881 635.746 31.2522C635.916 31.3914 636.087 31.5305 636.269 31.666C642.915 30.9754 649.837 29.8935 655.227 28.938C655.612 42.8952 645.17 57.6539 649.056 65.016L691.681 60.8707C690.435 57.6979 689.69 54.3507 689.472 50.9489C691.526 54.8952 694.737 58.1191 698.675 60.1883L702.298 59.8402L701.773 54.5222C704.071 30.684 685.152 12.8229 661.617 7.81351C656.383 3.54503 649.671 1.52245 642.95 2.18792L637.628 2.70092C634.272 3.02616 631.013 4.00928 628.037 5.59414C625.061 7.179 622.426 9.33456 620.283 11.9377C618.14 14.5409 616.53 17.5407 615.547 20.7659C614.563 23.991 614.224 27.3784 614.55 30.7345Z" fill="#2F2E41"/>
<path d="M650.611 3.54418C655.948 4.49022 660.785 7.27702 664.279 11.4199C667.774 15.5628 669.707 20.7997 669.74 26.2197C669.754 26.6085 669.917 26.977 670.197 27.2473C670.477 27.5176 670.851 27.6686 671.24 27.6686C671.629 27.6686 672.003 27.5176 672.283 27.2473C672.563 26.977 672.727 26.6085 672.74 26.2197C672.706 20.144 670.559 14.2693 666.667 9.60395C662.775 4.93855 657.38 1.7733 651.409 0.651341C649.521 0.311341 648.711 3.20193 650.611 3.54418Z" fill="#FD6584"/>
<path d="M858.941 472.978L1.19115 473.286C0.875955 473.285 0.573992 473.159 0.35144 472.936C0.128889 472.712 0.00390625 472.41 0.00390625 472.095C0.00390625 471.78 0.128889 471.477 0.35144 471.254C0.573992 471.031 0.875955 470.905 1.19115 470.904L858.941 470.597C859.257 470.597 859.56 470.722 859.783 470.946C860.006 471.169 860.132 471.472 860.132 471.788C860.132 472.103 860.006 472.406 859.783 472.63C859.56 472.853 859.257 472.978 858.941 472.978Z" fill="#CACACA"/>
</g>
<defs>
<clipPath id="clip0_1271_59">
<rect width="860.131" height="473.286" fill="white"/>
</clipPath>
</defs>
</svg>
